HIERARCHY
ROOT hip
{
	OFFSET 0.000000 0.000000 0.000000 
	CHANNELS 6 Xposition Yposition Zposition Xrotation Zrotation Yrotation
	JOINT abdomen
	{
		OFFSET 0.000000 3.402643 0.000000 
		CHANNELS 3 Xrotation Zrotation Yrotation
		JOINT chest
		{
			OFFSET 0.000000 8.438565 -0.680529 
			CHANNELS 3 Xrotation Zrotation Yrotation
			JOINT neck
			{
				OFFSET 0.000000 10.207942 -0.272212 
				CHANNELS 3 Xrotation Zrotation Yrotation
				JOINT head
				{
					OFFSET 0.000000 3.130431 0.000000 
					CHANNELS 3 Xrotation Zrotation Yrotation
					End Site
					{
						OFFSET 0.000000 3.130435 0.000000 
					}
				}
			}
			JOINT lCollar
			{
				OFFSET 3.470700 6.669187 -0.816635 
				CHANNELS 3 Yrotation Zrotation Xrotation
				JOINT lShldr
				{
					OFFSET 3.198488 0.000000 0.000000 
					CHANNELS 3 Zrotation Yrotation Xrotation
					JOINT lForeArm
					{
						OFFSET 10.139888 0.000000 0.000000 
						CHANNELS 3 Yrotation Zrotation Xrotation
						JOINT lHand
						{
							OFFSET 8.370511 0.000000 0.000000 
							CHANNELS 3 Zrotation Yrotation Xrotation
							End Site
							{
								OFFSET 4.083176 0.000000 0.000000 
							}
						}
					}
				}
			}
			JOINT rCollar
			{
				OFFSET -3.470700 6.669187 -0.816635 
				CHANNELS 3 Yrotation Zrotation Xrotation
				JOINT rShldr
				{
					OFFSET -3.198488 0.000000 0.000000 
					CHANNELS 3 Zrotation Yrotation Xrotation
					JOINT rForeArm
					{
						OFFSET -10.139888 0.000000 0.000000 
						CHANNELS 3 Yrotation Zrotation Xrotation
						JOINT rHand
						{
							OFFSET -8.370511 0.000000 0.000000 
							CHANNELS 3 Zrotation Yrotation Xrotation
							End Site
							{
								OFFSET -4.083176 0.000000 0.000000 
							}
						}
					}
				}
			}
		}
	}
	JOINT lThigh
	{
		OFFSET 5.308129 -1.633274 1.361059 
		CHANNELS 3 Xrotation Zrotation Yrotation
		JOINT lShin
		{
			OFFSET -2.041588 -20.007561 0.000000 
			CHANNELS 3 Xrotation Zrotation Yrotation
			JOINT lFoot
			{
				OFFSET 0.000000 -19.190928 -1.224953 
				CHANNELS 3 Xrotation Yrotation Zrotation
				End Site
				{
					OFFSET 0.000000 -2.449906 4.627600 
				}
			}
		}
	}
	JOINT rThigh
	{
		OFFSET -5.308129 -1.633274 1.361059 
		CHANNELS 3 Xrotation Zrotation Yrotation
		JOINT rShin
		{
			OFFSET 2.041588 -20.007561 0.000000 
			CHANNELS 3 Xrotation Zrotation Yrotation
			JOINT rFoot
			{
				OFFSET 0.000000 -19.190928 -1.224953 
				CHANNELS 3 Xrotation Yrotation Zrotation
				End Site
				{
					OFFSET 0.000000 -2.449906 4.627600 
				}
			}
		}
	}
}
MOTION
Frames: 20
Frame Time: 0.033333
-0.031906 49.744671 1.357952 0.000000 0.000000 0.000000 10.634766 -8.730469 -6.544451 -9.433595 9.638673 4.677734 -0.048828 0.000000 0.000000 0.009766 -0.146484 -0.224609 1.992188 -2.001953 0.000341 -8.808365 16.073826 11.838304 -24.648438 0.039063 0.068359 10.712891 49.814453 6.425781 -2.001953 1.992188 0.000000 20.439453 -20.898438 12.603940 30.009764 -2.958985 -1.572266 -10.722656 -49.863281 6.320659 1.171506 4.541263 0.551709 1.457864 -0.505972 -0.023533 -1.327305 -0.067621 0.046896 1.922235 -4.429965 -0.341621 0.768130 0.233470 -0.051578 -0.699897 -0.206324 0.035474 
-0.136173 49.932392 1.618422 0.058594 -0.019531 -0.019531 10.898437 -8.730469 -6.718750 -9.394530 9.599608 4.650066 -0.048828 0.000000 0.000000 0.078125 -0.205078 -0.439488 1.992188 -2.001953 0.000341 -21.855469 15.429688 12.307286 -27.001953 0.039063 0.117181 10.761719 49.873047 6.474609 -2.001953 1.992188 0.000000 49.267578 -25.878906 12.261362 38.388672 -4.833984 -0.937500 -10.800780 -49.824219 6.340195 0.604338 4.777369 0.320310 3.239987 -1.240257 -0.009026 -3.241225 -0.173872 0.519627 1.716793 -4.537230 -0.238656 1.655644 0.671666 0.050860 -1.602848 -0.337575 -0.101968 
-0.260617 49.936562 1.815059 0.058594 -0.019531 -0.019531 11.269531 -8.769530 -6.894532 -9.287110 9.599609 4.619141 -0.048828 0.000000 0.000000 0.048828 -0.283203 -0.625048 1.992188 -2.001953 0.000341 -34.941402 14.736329 12.883345 -29.296877 0.029297 0.136719 10.800781 49.902344 6.491847 -2.001953 1.992188 0.000000 70.146484 -28.906248 11.274577 44.824219 -6.191407 -0.233322 -10.888672 -49.765629 6.386719 0.166117 4.968373 0.149685 4.849950 -1.971563 -0.154336 -5.383054 -0.204669 1.102195 1.445757 -4.627941 -0.038225 2.573726 1.159791 0.044504 -2.660004 -0.452335 -0.204741 
-0.383474 49.818268 1.985544 0.107422 -0.019531 0.000000 11.601563 -8.798827 -7.050782 -9.199220 9.589845 4.589844 -0.048828 0.000000 0.000000 0.048828 -0.283203 -0.888720 1.992188 -2.001953 0.000341 -47.724609 14.023438 13.586352 -31.640625 0.029297 0.175781 10.869141 49.912109 6.504447 -2.001953 1.992188 0.000000 76.103516 -29.677732 12.348681 48.125000 -6.855469 0.167181 -11.074219 -49.755863 6.476922 -0.321823 5.124344 -0.102593 6.304989 -2.547557 -0.187776 -7.346635 -0.272854 1.674440 1.121720 -4.710290 0.251416 3.512785 1.619305 0.085735 -3.723146 -0.567039 -0.352729 
-0.486511 49.668102 2.037702 0.136719 -0.019531 0.009766 11.826171 -8.867188 -7.128907 -9.130859 9.560547 4.591466 -0.048828 0.000000 0.000000 0.146484 -0.283203 -1.220704 1.992188 -2.001953 0.000341 -59.707035 13.349610 14.414063 -34.208981 0.019531 0.195309 10.966797 49.970703 6.601562 -2.001953 1.992188 0.000000 73.037109 -29.160154 15.005011 49.433594 -7.099609 0.322266 -11.337892 -49.746090 6.621094 -0.848682 5.209993 -0.319654 7.476592 -3.016398 -0.231875 -8.907634 -0.270779 2.121782 0.742256 -4.800656 0.518190 4.292364 2.008620 0.065698 -4.734818 -0.596154 -0.403236 
-0.541886 49.533031 1.975186 0.195313 -0.019531 0.000000 12.128906 -8.945313 -7.218316 -9.062500 9.531250 4.571991 -0.048828 0.000000 0.000000 0.146484 -0.283203 -1.533204 1.992188 -2.001953 0.000341 -70.507813 12.695313 15.080273 -37.099606 0.000000 0.205078 11.025392 50.039063 6.628578 -2.001953 1.992188 0.000000 70.195313 -28.056639 17.905565 50.478516 -7.324219 0.450463 -11.640625 -49.677738 6.799195 -1.267269 5.226005 -0.435680 8.122520 -3.300104 -0.239696 -9.647928 -0.163579 2.327765 0.312642 -4.906216 0.783705 4.927146 2.379714 0.110255 -5.642311 -0.521364 -0.568226 
-0.517720 49.406807 1.748959 0.263672 -0.019531 0.000000 12.509765 -9.033203 -7.382812 -8.945313 9.511720 4.560547 -0.048828 0.000000 0.000000 -0.039063 -0.312500 -1.689453 1.992188 -2.001953 0.000341 -79.648438 11.787110 15.314498 -40.400387 -0.039063 0.253913 11.103515 50.195309 6.640625 -2.001953 1.992188 0.000000 71.005859 -25.869143 21.685194 52.285160 -7.646485 0.714190 -12.089843 -49.599609 7.121470 -1.725796 5.217359 -0.414146 8.460973 -3.425749 -0.298841 -9.896179 -0.071904 2.341115 -0.350763 -5.092486 0.989301 5.573483 2.683133 0.128217 -6.318067 -0.306417 -0.594649 
-0.435451 49.344162 1.337107 0.351563 -0.019531 0.009762 13.095703 -9.091798 -7.677325 -8.798827 9.472656 4.503561 -0.048828 0.000000 0.000000 -0.615234 -0.458984 -1.689531 1.992188 -2.001953 0.000341 -84.443359 9.365234 14.112919 -46.992188 -0.058594 0.322276 11.113281 50.537109 6.628634 -2.001953 1.992188 0.000000 72.167969 -22.792969 25.787231 53.837891 -7.939454 0.937500 -12.587891 -49.531250 7.500000 -2.350367 5.120964 -0.411460 8.708903 -3.515255 -0.340189 -10.071457 -0.106941 2.422724 -1.102564 -5.290594 1.075923 6.062582 2.927546 0.186285 -6.648964 -0.143597 -0.662271 
-0.253240 49.276234 0.772638 0.478516 -0.019531 0.029294 13.994140 -9.130859 -8.222656 -8.564453 9.433594 4.405898 -0.048828 0.000000 0.000000 -1.679688 -0.722656 -1.377076 1.992188 -2.001953 0.000341 -83.662109 5.966797 10.821329 -55.078121 -0.117188 0.410176 11.142578 50.986332 6.589621 -2.001953 1.992188 0.000000 72.519531 -20.898438 27.125422 53.789066 -7.929688 0.938848 -12.792969 -49.541016 7.675781 -3.080942 4.992265 -0.464935 8.703059 -3.561778 -0.264848 -10.036107 -0.195940 2.465920 -1.901502 -5.549275 0.640122 6.272641 3.081363 0.127513 -6.459341 0.103047 -0.850650 
-0.005386 49.354267 -0.033264 0.605469 -0.019531 0.058594 15.253906 -9.033204 -9.179688 -8.232422 9.404296 4.199219 -0.048828 0.000000 0.000000 -3.388672 -1.298828 -0.410378 1.992188 -2.001953 0.000341 -79.521484 4.511719 5.576941 -57.734375 -0.146484 0.429712 10.869141 51.201172 6.367188 -2.001953 1.992188 0.000000 72.343750 -20.175781 23.219290 51.113281 -7.441407 0.527344 -12.451172 -49.619137 7.480468 -3.992080 4.782824 -0.778246 8.065074 -3.310191 -0.255809 -8.471557 -0.429213 2.518654 -2.645534 -5.778097 -0.419018 5.962100 2.919020 0.043165 -5.614170 0.185869 -1.227923 
0.277021 49.314251 -1.079829 0.742188 -0.019531 0.058591 16.816406 -8.808594 -10.517578 -7.861328 9.365234 3.876953 -0.048828 0.000000 0.000000 -5.830078 -2.148437 1.201172 1.992188 -2.001953 0.000341 -72.695305 5.429688 -1.102590 -52.216797 -0.078125 0.361341 10.195313 51.054684 5.937500 -2.001953 1.992188 0.000000 71.357422 -21.015627 16.754309 46.884769 -6.611328 0.001124 -11.855470 -49.794926 7.050782 -4.817244 4.417780 -1.212066 6.180280 -2.538674 -0.238370 -4.734322 -0.833569 2.487679 -3.336128 -5.842412 -1.585320 5.036983 2.450202 0.020855 -4.307896 0.049290 -1.579085 
0.544166 49.117783 -2.312091 0.869141 -0.019531 0.107422 18.671877 -8.437500 -11.983853 -7.382811 9.316406 3.556268 -0.048828 0.000000 0.000000 -9.208984 -2.910156 3.203125 1.992188 -2.001953 0.000341 -63.906250 8.554688 -9.061047 -42.421875 0.009766 0.244139 9.228516 50.712891 5.341797 -2.001953 1.992188 0.000000 67.343750 -25.468750 12.437206 42.822266 -5.791016 -0.488281 -11.132813 -49.941406 6.574558 -5.617836 3.901598 -1.838532 3.591416 -1.483675 -0.146612 -0.186335 -1.081239 2.545649 -4.332668 -5.971429 -2.119328 4.187224 2.049757 0.021485 -3.208468 -0.131062 -1.742983 
0.906907 48.635849 -3.779856 0.937500 -0.019531 0.087887 20.712891 -8.076172 -13.164063 -6.845703 9.257813 3.292587 -0.048828 0.000000 0.000000 -13.505858 -3.222656 5.165467 1.992188 -2.001953 0.000341 -56.269531 14.570312 -16.579576 -31.884768 0.029297 0.146484 8.281250 50.341797 4.763378 -2.001953 1.992188 0.000000 56.142578 -35.664063 14.169923 39.365234 -5.048828 -0.829219 -10.439452 -50.039063 6.164391 -16.561291 7.460336 -3.518785 21.976391 -9.959393 -1.821380 -6.858860 -1.103403 7.637016 -12.396320 -9.829164 -1.223020 17.904808 8.679068 1.209492 -9.515287 0.073301 -4.882423 
1.245472 47.881256 -5.699424 0.839844 -0.019531 0.087891 22.841799 -7.744141 -13.770847 -6.240234 9.160155 3.185148 -0.048828 0.000000 0.000000 -19.111326 -2.880860 6.767087 1.992188 -2.001953 0.000341 -52.050777 22.490234 -22.359543 -23.994143 0.039063 0.068359 7.597656 50.117188 4.355469 -2.001953 1.992188 0.000000 38.593750 -48.437500 21.025393 36.083984 -4.326172 -1.112545 -9.697266 -50.058594 5.722657 -22.282728 8.036235 -4.279316 29.682476 -12.079835 -2.901934 -9.990502 -0.461289 8.233893 -17.912960 -12.202364 -0.777155 25.528988 12.213103 2.507840 -12.470823 0.248314 -5.113935 
1.064901 45.990841 -7.580504 0.703125 -0.019531 0.058594 26.171877 -7.773438 -13.077494 -5.273438 8.974609 3.525390 -0.048828 0.000000 0.000000 -27.255859 -1.660156 6.709017 1.992188 -2.001953 0.000341 -52.167969 32.812500 -27.973221 -19.003904 0.078125 0.009752 7.128906 50.029293 4.150391 -2.001953 1.992188 0.000000 27.089844 -58.505863 23.710938 33.935551 -3.867188 -1.288404 -9.033203 -50.039063 5.351563 -30.341780 9.274876 -4.614398 44.140888 -16.383205 -6.164697 -18.212639 -0.318592 9.920463 -26.799625 -15.699517 0.626947 40.414886 18.159719 6.273510 -19.524597 0.780063 -4.545469 
1.073396 43.669998 -9.345327 0.703125 -0.019531 0.058594 30.039063 -8.388672 -11.661581 -4.140625 8.740233 4.150391 -0.048828 0.000000 0.000000 -36.113281 -0.595703 5.166025 1.992188 -2.001953 0.000341 -57.324219 43.994141 -35.517578 -15.400390 0.097656 -0.029314 6.796875 50.048832 4.060222 -2.001953 1.992188 0.000000 33.408203 -67.060547 11.778120 33.134766 -3.671875 -1.328125 -8.417969 -50.048828 4.921875 -38.099407 10.477106 -4.278440 57.214321 -19.631512 -10.012395 -23.915356 -0.988837 13.423493 -35.439102 -18.847399 2.375524 54.278141 22.286785 11.011217 -25.082466 1.316414 -4.028446 
0.692584 41.355438 -9.958135 0.898438 -0.019531 0.078122 31.796877 -8.925781 -10.743703 -3.603516 8.623047 4.552246 -0.048828 0.000000 0.000000 -41.035156 -0.488281 4.316323 1.992188 -2.001953 0.000341 -65.751953 52.529297 -43.253967 -13.623047 0.087891 -0.048828 6.699219 50.097656 4.082031 -2.001953 1.992188 0.000000 51.445313 -72.578125 -9.315957 33.378906 -3.720703 -1.318359 -7.871094 -49.902348 4.521484 -44.208042 11.267041 -3.790847 69.308655 -21.755821 -14.111567 -29.093689 -1.728200 17.340500 -42.676018 -21.206997 4.104434 66.789467 24.979519 15.893136 -30.468966 2.003205 -4.845617 
0.342744 40.025723 -8.979970 1.123047 -0.019531 0.126950 31.396484 -9.052735 -10.488280 -3.691406 8.691406 4.630382 -0.048828 0.000000 0.000000 -41.337891 -1.093750 4.687314 1.992188 -2.001953 0.000341 -69.208984 54.082031 -44.376858 -14.169922 0.097656 -0.058610 6.796876 50.166019 4.206718 -2.001953 1.992188 0.000000 61.416016 -70.722656 -19.267031 35.156250 -4.101563 -1.190708 -7.695313 -49.902344 4.345703 -45.834229 11.336612 -2.532694 76.351433 -22.683268 -16.671423 -36.546223 -1.894184 20.659529 -45.264133 -22.603844 4.786390 74.848907 26.122620 19.342125 -35.054073 1.948759 -4.999116 
0.168856 39.663960 -6.329980 1.386719 -0.019531 0.156247 30.517576 -9.121095 -10.263671 -3.925782 8.818360 4.687500 -0.048828 0.000000 0.000000 -39.775391 -2.001953 5.039062 1.992188 -2.001953 0.000341 -64.560547 44.873047 -35.012638 -17.919922 0.078125 -0.029310 7.148438 50.283207 4.382513 -2.001953 1.992188 0.000000 57.861332 -59.208984 -10.184168 39.130859 -4.990234 -0.819463 -7.910156 -50.019531 4.326172 -43.715466 11.141164 -1.544634 79.530113 -22.995701 -17.825968 -41.755371 -2.518369 22.210922 -43.288982 -23.358471 4.701862 78.709068 26.484262 21.027601 -38.811718 1.750012 -4.441162 
-0.063416 39.458065 -2.412521 1.650391 -0.019531 0.224606 29.248049 -9.130859 -10.089440 -4.267578 8.964844 4.689022 -0.048828 0.000000 0.000000 -36.591801 -2.880859 5.068359 1.992188 -2.001953 0.000341 -61.523434 27.812502 -24.897787 -24.287109 0.068359 0.058594 7.685547 50.419922 4.577839 -2.001953 1.992188 0.000000 55.908207 -40.498047 1.360848 44.599609 -6.132813 -0.283203 -8.486328 -50.253906 4.423828 -39.871471 11.132005 -1.433358 81.991501 -23.123161 -18.742002 -44.079918 -2.487082 21.835926 -38.902321 -24.656260 3.543018 81.615341 26.757235 22.294006 -42.437267 2.147469 -4.656563 
